<svg xmlns="http://www.w3.org/2000/svg" version="1.1" width="600px" height="600px" viewBox="0 0 200 200" style="overflow:hidden!important;"><defs id="SvgjsDefs3079"><radialGradient id="SvgjsRadialGradient3140" cx="100" cy="113" r="40" gradientUnits="userSpaceOnUse" class="svga-on-canvas-facehighlight-gradient-single-0"><stop id="SvgjsStop3141" stop-opacity="0.5" stop-color="#ffe1d5" offset="0" ></stop><stop id="SvgjsStop3142" stop-opacity="0" stop-color="#f8cab6" offset="0.9" ></stop></radialGradient><radialGradient id="SvgjsRadialGradient3144" cx="100" cy="57" r="36" gradientUnits="userSpaceOnUse" class="svga-on-canvas-facehighlight-gradient-single-1"><stop id="SvgjsStop3145" stop-opacity="0.5" stop-color="#ffe1d5" offset="0" ></stop><stop id="SvgjsStop3146" stop-opacity="0" stop-color="#f8cab6" offset="0.9" ></stop></radialGradient><linearGradient id="SvgjsLinearGradient3458" x1="99.98" y1="171.27" x2="99.98" y2="136.351" gradientUnits="userSpaceOnUse" class="svga-on-canvas-chinshadow-gradient-single-0"><stop id="SvgjsStop3459" stop-opacity="0.8" stop-color="#e9ad94" offset="0" ></stop><stop id="SvgjsStop3460" stop-opacity="1" stop-color="#ca7a58" offset="0.7" ></stop></linearGradient><radialGradient id="SvgjsRadialGradient4954" cx="125.523" cy="88.627" r="13.218" gradientTransform="matrix(-1.0975 0.096 0.0956 1.0928 203.2283 -20.8703)" gradientUnits="userSpaceOnUse" class="svga-on-canvas-eyesback-gradient-left-0"><stop id="SvgjsStop4955" stop-opacity="1" stop-color="#ffffff" offset="0" ></stop><stop id="SvgjsStop4956" stop-opacity="1" stop-color="#fdfefe" offset="0.544" ></stop><stop id="SvgjsStop4957" stop-opacity="1" stop-color="#f6f8f9" offset="0.74" ></stop><stop id="SvgjsStop4958" stop-opacity="1" stop-color="#eaeff2" offset="0.879" ></stop><stop id="SvgjsStop4959" stop-opacity="1" stop-color="#d9e3e8" offset="0.992" ></stop><stop id="SvgjsStop4960" stop-opacity="1" stop-color="#d8e2e7" offset="1" ></stop></radialGradient><radialGradient id="SvgjsRadialGradient4962" cx="125.523" cy="88.627" r="13.218" gradientTransform="matrix(1.0975 0.096 -0.0956 1.0928 -3.2288 -20.8703)" gradientUnits="userSpaceOnUse" class="svga-on-canvas-eyesback-gradient-right-0"><stop id="SvgjsStop4963" stop-opacity="1" stop-color="#ffffff" offset="0" ></stop><stop id="SvgjsStop4964" stop-opacity="1" stop-color="#fdfefe" offset="0.544" ></stop><stop id="SvgjsStop4965" stop-opacity="1" stop-color="#f6f8f9" offset="0.74" ></stop><stop id="SvgjsStop4966" stop-opacity="1" stop-color="#eaeff2" offset="0.879" ></stop><stop id="SvgjsStop4967" stop-opacity="1" stop-color="#d9e3e8" offset="0.992" ></stop><stop id="SvgjsStop4968" stop-opacity="1" stop-color="#d8e2e7" offset="1" ></stop></radialGradient><radialGradient id="SvgjsRadialGradient4970" cx="125.523" cy="88.627" r="13.218" gradientTransform="matrix(-1.0975 0.096 0.0956 1.0928 203.2283 -20.8703)" gradientUnits="userSpaceOnUse" class="svga-on-canvas-eyesfront-gradient-left-0"><stop id="SvgjsStop4971" stop-opacity="1" stop-color="#ffffff" offset="0" ></stop><stop id="SvgjsStop4972" stop-opacity="1" stop-color="#fdfefe" offset="0.544" ></stop><stop id="SvgjsStop4973" stop-opacity="1" stop-color="#f6f8f9" offset="0.74" ></stop><stop id="SvgjsStop4974" stop-opacity="1" stop-color="#eaeff2" offset="0.879" ></stop><stop id="SvgjsStop4975" stop-opacity="1" stop-color="#d9e3e8" offset="0.992" ></stop><stop id="SvgjsStop4976" stop-opacity="1" stop-color="#d8e2e7" offset="1" ></stop></radialGradient><radialGradient id="SvgjsRadialGradient4980" cx="122.915" cy="85.507" fx="136.35" fy="84.425" r="17.038" gradientTransform="matrix(0.9926 0.1216 0.1079 -0.8805 -54.1424 145.8439)" gradientUnits="userSpaceOnUse" class="svga-on-canvas-eyesfront-gradient-left-3"><stop id="SvgjsStop4981" stop-opacity="1" stop-color="#e9ad94" offset="0" ></stop><stop id="SvgjsStop4982" stop-opacity="0.3" stop-color="#e9ad94" offset="0.7" ></stop><stop id="SvgjsStop4983" stop-opacity="0" stop-color="#f8cab6" offset="1" ></stop></radialGradient><radialGradient id="SvgjsRadialGradient4985" cx="78.447" cy="85.328" r="26.192" gradientTransform="matrix(0.7158 -0.1012 0.1016 0.7275 7.9808 45.9445)" gradientUnits="userSpaceOnUse" class="svga-on-canvas-eyesfront-gradient-left-4"><stop id="SvgjsStop4986" stop-opacity="0" stop-color="#000000" offset="0.9" ></stop><stop id="SvgjsStop4987" stop-opacity="0.3" stop-color="#000000" offset="1" ></stop></radialGradient><radialGradient id="SvgjsRadialGradient4991" cx="125.523" cy="88.627" r="13.218" gradientTransform="matrix(1.0975 0.096 -0.0956 1.0928 -3.2288 -20.8703)" gradientUnits="userSpaceOnUse" class="svga-on-canvas-eyesfront-gradient-right-0"><stop id="SvgjsStop4992" stop-opacity="1" stop-color="#ffffff" offset="0" ></stop><stop id="SvgjsStop4993" stop-opacity="1" stop-color="#fdfefe" offset="0.544" ></stop><stop id="SvgjsStop4994" stop-opacity="1" stop-color="#f6f8f9" offset="0.74" ></stop><stop id="SvgjsStop4995" stop-opacity="1" stop-color="#eaeff2" offset="0.879" ></stop><stop id="SvgjsStop4996" stop-opacity="1" stop-color="#d9e3e8" offset="0.992" ></stop><stop id="SvgjsStop4997" stop-opacity="1" stop-color="#d8e2e7" offset="1" ></stop></radialGradient><radialGradient id="SvgjsRadialGradient5001" cx="122.915" cy="85.507" fx="136.35" fy="84.425" r="17.038" gradientTransform="matrix(-0.9926 0.1216 -0.1079 -0.8805 254.1424 145.8439)" gradientUnits="userSpaceOnUse" class="svga-on-canvas-eyesfront-gradient-right-3"><stop id="SvgjsStop5002" stop-opacity="1" stop-color="#e9ad94" offset="0" ></stop><stop id="SvgjsStop5003" stop-opacity="0.3" stop-color="#e9ad94" offset="0.7" ></stop><stop id="SvgjsStop5004" stop-opacity="0" stop-color="#f8cab6" offset="1" ></stop></radialGradient><radialGradient id="SvgjsRadialGradient5006" cx="78.447" cy="85.328" r="26.192" gradientTransform="matrix(-0.7158 -0.1012 -0.1016 0.7275 192.0192 45.9445)" gradientUnits="userSpaceOnUse" class="svga-on-canvas-eyesfront-gradient-right-4"><stop id="SvgjsStop5007" stop-opacity="0" stop-color="#000000" offset="0.9" ></stop><stop id="SvgjsStop5008" stop-opacity="0.3" stop-color="#000000" offset="1" ></stop></radialGradient><radialGradient id="SvgjsRadialGradient5177" cx="-558.588" cy="-490.918" r="84.646" gradientTransform="matrix(0.096 -0.0248 0.0245 0.0961 140.5478 120.3577)" gradientUnits="userSpaceOnUse" class="svga-on-canvas-eyesiris-gradient-left-1"><stop id="SvgjsStop5178" stop-opacity="0.8" stop-color="#ffffff" offset="0" ></stop><stop id="SvgjsStop5179" stop-opacity="0" stop-color="#ffffff" offset="1" ></stop></radialGradient><radialGradient id="SvgjsRadialGradient5181" cx="-565.337" cy="-492.691" r="84.644" gradientTransform="matrix(0.0991 8.856325e-004 -0.0011 0.0991 130.3774 136.3533)" gradientUnits="userSpaceOnUse" class="svga-on-canvas-eyesiris-gradient-left-2"><stop id="SvgjsStop5182" stop-opacity="0.8" stop-color="#ffffff" offset="0" ></stop><stop id="SvgjsStop5183" stop-opacity="0" stop-color="#ffffff" offset="1" ></stop></radialGradient><linearGradient id="SvgjsLinearGradient5187" x1="122.283" y1="93.047" x2="123.61" y2="91.466" gradientTransform="matrix(1 0 0 1 -52 0)" gradientUnits="userSpaceOnUse" class="svga-on-canvas-eyesiris-gradient-left-5"><stop id="SvgjsStop5188" stop-opacity="1" stop-color="#ffffff" offset="0" ></stop><stop id="SvgjsStop5189" stop-opacity="0" stop-color="#ffffff" offset="1" ></stop></linearGradient><linearGradient id="SvgjsLinearGradient5195" x1="130" y1="81" x2="126" y2="85" gradientTransform="matrix(1 0 0 1 -50 0)" gradientUnits="userSpaceOnUse" class="svga-on-canvas-eyesiris-gradient-left-7"><stop id="SvgjsStop5196" stop-opacity="1" stop-color="#ffffff" offset="0" ></stop><stop id="SvgjsStop5197" stop-opacity="0" stop-color="#ffffff" offset="1" ></stop></linearGradient><radialGradient id="SvgjsRadialGradient5200" cx="-578.76" cy="-490.73" r="84.646" gradientTransform="matrix(0.096 -0.0248 0.0245 0.0961 192.4794 119.8404)" gradientUnits="userSpaceOnUse" class="svga-on-canvas-eyesiris-gradient-right-1"><stop id="SvgjsStop5201" stop-opacity="0.8" stop-color="#ffffff" offset="0" ></stop><stop id="SvgjsStop5202" stop-opacity="0" stop-color="#ffffff" offset="1" ></stop></radialGradient><radialGradient id="SvgjsRadialGradient5204" cx="-584.778" cy="-487.329" r="84.644" gradientTransform="matrix(0.0991 8.856325e-004 -0.0011 0.0991 182.3104 135.839)" gradientUnits="userSpaceOnUse" class="svga-on-canvas-eyesiris-gradient-right-2"><stop id="SvgjsStop5205" stop-opacity="0.8" stop-color="#ffffff" offset="0" ></stop><stop id="SvgjsStop5206" stop-opacity="0" stop-color="#ffffff" offset="1" ></stop></radialGradient><linearGradient id="SvgjsLinearGradient5210" x1="120.284" y1="93.047" x2="121.611" y2="91.467" gradientUnits="userSpaceOnUse" class="svga-on-canvas-eyesiris-gradient-right-5"><stop id="SvgjsStop5211" stop-opacity="1" stop-color="#ffffff" offset="0" ></stop><stop id="SvgjsStop5212" stop-opacity="0" stop-color="#ffffff" offset="1" ></stop></linearGradient><linearGradient id="SvgjsLinearGradient5218" x1="130" y1="81" x2="126" y2="85" gradientUnits="userSpaceOnUse" class="svga-on-canvas-eyesiris-gradient-right-7"><stop id="SvgjsStop5219" stop-opacity="1" stop-color="#ffffff" offset="0" ></stop><stop id="SvgjsStop5220" stop-opacity="0" stop-color="#ffffff" offset="1" ></stop></linearGradient><linearGradient id="SvgjsLinearGradient5336" x1="130" y1="81" x2="126" y2="85" gradientTransform="matrix(1 0 0 1 -50 0)" gradientUnits="userSpaceOnUse" class="svga-on-canvas-eyesiris-gradient-left-6"><stop id="SvgjsStop5337" stop-opacity="1" stop-color="#ffffff" offset="0" ></stop><stop id="SvgjsStop5338" stop-opacity="0" stop-color="#ffffff" offset="1" ></stop></linearGradient><linearGradient id="SvgjsLinearGradient5346" x1="130" y1="81" x2="126" y2="85" gradientUnits="userSpaceOnUse" class="svga-on-canvas-eyesiris-gradient-right-6"><stop id="SvgjsStop5347" stop-opacity="1" stop-color="#ffffff" offset="0" ></stop><stop id="SvgjsStop5348" stop-opacity="0" stop-color="#ffffff" offset="1" ></stop></linearGradient><linearGradient id="SvgjsLinearGradient5447" x1="100" y1="142" x2="100" y2="139" gradientUnits="userSpaceOnUse" class="svga-on-canvas-mouth-gradient-single-0"><stop id="SvgjsStop5448" stop-opacity="1" stop-color="#f0bba4" offset="0.1" ></stop><stop id="SvgjsStop5449" stop-opacity="1" stop-color="#e9ad94" offset="1" ></stop></linearGradient></defs><g id="svga-group-wrapper"><g id="svga-group-backs-single"></g><g id="svga-group-humanwrap-move" transform="matrix(1,0,0,1,0,4)"><g id="svga-group-humanwrap" transform="matrix(0.8999995000000002,0,0,0.8999995000000002,9.968343412940001,11.799966683864568)"><g id="svga-group-hair-back-move" transform="matrix(1,0,0,1,0,0)"><g id="svga-group-hair-back" transform="matrix(1,0,0,1,0,0)"><path id="SvgjsPath5439" d="M151.582 41.064l-99.508-5.662c0 0-25.074 182.88-25.074 188.596 0 0 100.899 0.72 143.907 0C170.103 216.079 151.582 41.064 151.582 41.064z" fill="#2a1c16" stroke-width="none" opacity="1"></path></g></g><g id="svga-group-humanbody-single"><path id="SvgjsPath3147" d="M190.858 199.866c-6.008-10.158-13.474-11.973-19.628-13.936 -6.323-2.016-19.346-3.178-26.449-4.6 -6.86-1.373-23.153-5.789-23.339-13.488 -0.192-8.066 4.291-40.09 4.291-40.09H74.005c0 0 4.487 32.023 4.294 40.09 -0.184 7.699-16.48 12.115-23.341 13.488 -7.104 1.422-20.125 2.584-26.448 4.6 -6.156 1.963-13.624 3.777-19.632 13.936 -3.644 6.16-6.008 16.133-6.008 27.133h194C196.869 215.999 194.509 206.026 190.858 199.866z" fill="#f8cab6" stroke-width="none" opacity="1" stroke="none"></path><path id="SvgjsPath3148" d="M121.442 167.843c2.495 10.929 18.165 13.698 26.293 15.325 21.909 4.379 33.772 5.134 42.297 19.539 2.903 4.916 5.459 15.864 5.962 24.153 1.835 0.291 0.531-17.432-5.136-26.994 -9.742-16.472-29.089-15.135-46.077-18.535C137.921 179.958 121.628 175.542 121.442 167.843L121.442 167.843zM78.558 167.843c-0.186 7.699-16.479 12.115-23.339 13.488 -16.988 3.4-36.335 2.063-46.077 18.535 -5.667 9.563-6.971 27.285-5.136 26.994 0.503-8.289 3.059-19.237 5.962-24.153 8.524-14.405 20.388-15.16 42.297-19.539C60.393 181.541 76.063 178.771 78.558 167.843L78.558 167.843z" fill="#ffe1d5" stroke-width="none" opacity="1" stroke="none"></path><path id="SvgjsPath3149" d="M51.206 189.513c0 0 28.641 0.299 33.473 1.885 2.314 0.758 8.372 5.633 8.372 5.633s-6.556-3.17-8.658-3.758C79.51 191.909 51.206 189.513 51.206 189.513zM99.795 199.999c2.053-0.041 7.887-3.799 7.887-3.799s-5.574 2.059-7.342 2.16c-1.491 0.086-6.366-1.238-6.366-1.238S98.112 200.032 99.795 199.999zM117.008 192.757c6.75-1.818 29.786-3.23 29.786-3.23s-23.791-0.516-30.51 1.725c-2.252 0.752-7.562 5.16-7.562 5.16S114.786 193.354 117.008 192.757z" fill="#e9ad94" stroke-width="none" opacity="1" stroke="none"></path><path id="SvgjsPath3150" d="M190.858 199.866c-9.741-16.471-29.122-15.142-46.077-18.535 -6.86-1.373-23.153-5.789-23.339-13.488 -0.192-8.066 4.291-40.09 4.291-40.09H74.005c0 0 4.487 32.023 4.294 40.09 -0.184 7.699-16.48 12.115-23.341 13.488 -7.104 1.422-20.125 2.584-26.448 4.6 -6.156 1.963-13.624 3.777-19.632 13.936 -3.644 6.16-6.008 16.133-6.008 27.133h194C196.869 215.999 194.509 206.026 190.858 199.866z" fill="none" stroke="#ca7a58" stroke-width="1.5" opacity="1"></path></g><g id="svga-group-chinshadow-single"><path id="SvgjsPath3457" d="M100.002 171.005c7.478 0 14.576-2.63 20.879-6.56 0.487-8.706 2.716-25.793 3.721-33.231 -14.77-1.574-34.756-1.565-49.463 0.027 1.001 7.405 3.205 24.29 3.711 33.034C85.222 168.3 92.418 171.005 100.002 171.005z" fill="url(#SvgjsLinearGradient3458)" opacity="1"></path></g><g id="svga-group-clothes-single"><path id="SvgjsPath5600" d="M1.509 238.026c0.211-43.783 8.946-50.671 43.101-55.823 13.099-1.976 25.278-3.824 31.798-13.197 -1.371-1.441-1.8-3.341-0.473-4.779 -0.706-1.084-0.696-3.223 1.426-3.401 0.198 1.43-0.4 0.875 2.776 2.219 19.874 8.397 27.911 4.119 39.35 0.265 2.39-0.809 2.695-0.969 2.955-2.997 0.506 0.199 0.846 0.559 0.891 0.712 0.56 0.894-0.327 2.033-0.483 2.944 1.049 1.008 0.442 2.331-0.431 3.502 15.514 25.709 65.877 1.542 74.242 44.425 1.391 12.381 1.61 25.702 1.626 26.956C197.287 238.851 66.557 239.192 1.509 238.026z" fill="#490303" stroke-width="none" opacity="1" stroke="none"></path><path id="SvgjsPath5601" d="M191.032 202.707c5.877 8.853 4.81 18.807 6.837 24.292 0-11-2.36-20.973-6.011-27.133 -9.742-16.472-26.089-14.936-43.077-18.336 -16.079-3.218-21.88-6.521-25.599-12.503C135.104 189.31 175.119 178.735 191.032 202.707zM76.817 169.027c-3.719 5.981-9.52 9.285-25.599 12.503 -16.988 3.4-33.335 1.864-43.077 18.336 -3.65 6.16-6.011 16.133-6.011 27.133 2.027-5.485 0.96-15.439 6.837-24.292C24.881 178.735 64.896 189.31 76.817 169.027z" fill="#580c0c" stroke-width="none" opacity="1" stroke="none"></path><path id="SvgjsPath5602" d="M75.177 165.438c-2.58 9.201 40.672 8.591 30.123 8.857C96.484 174.524 72.865 172.321 75.177 165.438zM111.789 173.288c10.395-3.424 11.681-7.793 11.681-7.793 -0.05 0.053-0.198 0.512-0.668 0.945 -0.907 0.995-10.79 6.722-12.128 7.167C110.674 173.607 111.118 173.52 111.789 173.288zM105.973 171.604c14.206-1.792 16.845-7.246 16.845-7.246 -4.313 6.62-29.991 10.398-46.95-0.03C83.98 170.032 94.415 173.021 105.973 171.604z" fill="#3a0000" stroke-width="none" opacity="1" stroke="none"></path><path id="SvgjsPath5603" d="M196.759 211.875c-8.383-42.978-59.187-18.908-74.22-44.399 0.885-1.192 1.451-2.551 0.38-3.58 0.405-0.852 1.035-2.112 0.51-2.9 -0.061-0.205-0.485-0.629-1.069-0.819l-0.061 0.46c0 0 0 0 0.001 0 -0.278 2.326-1.229 1.798-5.961 3.72 -18.553 7.739-31.947 0.168-38.58-2.399 -0.25-0.07-0.261-0.64-0.261-1.008 -0.002 0.003-0.014 0.005-0.018 0.007l-0.033-0.235c-0.613 0.026-1.382 0.307-1.728 0.886 0 0.01-0.01 0.01-0.01 0.02 -0.357 0.559-0.442 1.75 0.1 2.591 -1.129 1.227-1.058 3.197 0.47 4.8 -15.166 21.719-62.593 2.866-72.31 39.14 -2.093 9.049-2.56 28.104-2.56 29.97 0 0 62.375 1.143 196.89 0.82 0.03-0.01 0.061-0.01 0.09 0C198.389 237.945 198.151 224.264 196.759 211.875zM1.519 237.766c0.27-5.87 0.85-15.73 2.22-25.79 9.012-40.5 55.892-18.97 72.77-42.73 5.653 5.751 24.777 6.521 31.05 4.851 -9.29 1.206-36.968-2.302-31.61-9.7 0.315 0.445 1.567 1.588 2.135 1.629 -0.039 0.077 0.044-0.082 0.002-0.004 -0.227-0.319-1.636-1.794-1.727-2.025 -0.338-0.42-0.451-1.741-0.17-2.21 0.144-0.283 0.475-0.453 0.774-0.562 0.359 2.418-0.533 1.245 7.996 4.361 19.91 7.275 28.574 0.224 35.76-2.25 1.653-0.534 1.917-1.917 1.959-2.43 0.063 0.048 0.118 0.095 0.132 0.14 0.643 0.79 0.121 1.876-0.19 2.841 -0.01 0.01-0.01 0.029-0.02 0.04 -0.213 0.564-0.601 1.341-0.949 1.841 0.569-0.422 0.846-1.043 1.148-1.621 2.183 2.98-8.034 7.582-11.37 9.25 1.98-0.792 7.546-1.585 10.921-5.69 16.262 27.701 70.326-0.145 74.72 52.261 0.903 10.771 0.804 9.778 1.22 18.81C95.539 237.251 111.997 237.184 1.519 237.766z" fill="#1b0000" stroke-width="none" opacity="1" stroke="none"></path></g><g id="svga-group-head" transform="matrix(1,0,0,1,0,0)"><g id="svga-group-ears-left-move" transform="matrix(1,0,0,1,0,0)" style="display: none;"><g id="svga-group-ears-left" transform="matrix(1,0,0,1,0,0)"><path id="SvgjsPath3681" d="M47.001 83.974c-1.376-2.313-5.638-7.997-9.98-6.603 -2.749 0.882-3.293 3.765-3.735 6.311 -0.588 3.386 0.471 10.083 1.389 12.503 0.881 2.325 3.533 6.816 5.264 8.527 2.13 2.1 4.775 8.793 5.194 9.487 0.66 1.097 1.536 2.745 4.122 2.538 2.853-0.229 4.584-1.742 5.856-1.999C58.253 114.109 50.582 89.995 47.001 83.974z" fill="#f8cab6" stroke="#ca7a58" stroke-width="1.5" opacity="1"></path><path id="SvgjsPath3682" d="M44.197 97.997c-0.132-0.548 0.007-1.47 0.142-2.362 0.124-0.812 0.24-1.579 0.169-2.121 -0.267-2.032-1.773-5.893-2.757-7.985 -1.132-2.407-2.963-5.439-5.262-6.221 -0.95-0.324-1.575 0.063-1.938 0.456 -0.266 0.289-0.325 0.627-0.238 0.667 0.086 0.04 0.285-0.24 0.572-0.504 0.235-0.216 0.579-0.402 1.051-0.363 -0.19 1.011-1.167 6.49-0.744 10.225 0.333 2.938 1.593 5.131 1.79 5.46 0.029 0.346 0.077 0.685 0.148 1.014 0.929 4.287 4.971 9.163 6.378 10.758 0.259 0.295 0.531 0.47 0.598 0.398 0.066-0.072-0.094-0.364-0.353-0.66 -1.388-1.585-5.391-6.442-6.289-10.579 -0.952-4.389 2.318-10.896 3.048-12.272 0.371 0.646 0.687 1.267 0.93 1.785 0.19 0.406 0.402 0.881 0.619 1.395 -0.429 0.718-3.434 5.958-2.338 10.153 0.406 1.546 2.235 3.54 3.447 4.086 0.667 0.301 0.919 0.75 1.209 1.271 0.336 0.604 0.718 1.288 1.828 1.784 0.225 0.102 0.429 0.142 0.61 0.142 0.313 0 0.551-0.126 0.725-0.276 0.018 0.266 0.017 0.604 0.009 0.917 -0.012 0.404 0.042 0.737 0.137 0.745 0.094 0.008 0.196-0.313 0.207-0.717 0.016-0.496 0.013-1.11-0.072-1.403 -0.248-0.865-1.008-1.841-1.813-2.875C45.221 99.896 44.403 98.844 44.197 97.997zM36.95 94.196c-2.177-6.731 0.656-12.54 1.144-13.464 0.85 0.775 1.6 1.811 2.21 2.824C39.86 84.365 37.041 89.669 36.95 94.196zM46.341 104.042c-1.004-0.447-1.339-1.051-1.666-1.633 -0.293-0.527-0.598-1.072-1.369-1.42 -0.168-0.075-0.352-0.191-0.542-0.323 -2.486-5.906 0.272-8.488 0.963-9.017 0.211 0.722 0.369 1.384 0.439 1.915 0.063 0.488-0.052 1.263-0.167 2.012 -0.142 0.929-0.286 1.89-0.137 2.512 0.226 0.926 1.069 2.009 1.884 3.057 0.723 0.929 1.466 1.888 1.721 2.67C47.359 103.972 47.017 104.345 46.341 104.042z" fill="#ca7a58" stroke-width="none" opacity="1" stroke="none"></path></g></g><g id="svga-group-ears-right-move" transform="matrix(1,0,0,1,0,0)" style="display: none;"><g id="svga-group-ears-right" transform="matrix(1,0,0,1,0,0)"><path id="SvgjsPath3683" d="M152.736 83.974c1.377-2.313 5.639-7.997 9.98-6.603 2.75 0.882 3.293 3.765 3.736 6.311 0.588 3.386-0.471 10.083-1.389 12.503 -0.881 2.325-3.533 6.816-5.266 8.527 -2.129 2.1-4.775 8.793-5.193 9.487 -0.658 1.097-1.535 2.745-4.121 2.538 -2.854-0.229-4.584-1.742-5.857-1.999C141.484 114.109 149.156 89.995 152.736 83.974z" fill="#f8cab6" stroke="#ca7a58" stroke-width="1.5" opacity="1"></path><path id="SvgjsPath3684" d="M153.727 100.913c-0.805 1.033-1.564 2.009-1.813 2.875 -0.086 0.293-0.088 0.907-0.072 1.403 0.012 0.404 0.113 0.725 0.207 0.717s0.148-0.341 0.137-0.745c-0.008-0.313-0.008-0.651 0.01-0.917 0.174 0.15 0.412 0.276 0.725 0.276 0.182 0 0.385-0.04 0.609-0.142 1.109-0.496 1.492-1.18 1.828-1.784 0.289-0.52 0.543-0.969 1.209-1.271 1.213-0.546 3.041-2.54 3.447-4.086 1.096-4.194-1.908-9.435-2.338-10.153 0.217-0.513 0.43-0.988 0.619-1.395 0.244-0.518 0.559-1.139 0.93-1.785 0.73 1.377 4 7.883 3.049 12.272 -0.896 4.137-4.9 8.994-6.289 10.579 -0.258 0.296-0.418 0.588-0.352 0.66 0.066 0.071 0.338-0.104 0.598-0.398 1.406-1.596 5.449-6.471 6.379-10.758 0.07-0.329 0.117-0.668 0.146-1.014 0.197-0.329 1.459-2.523 1.791-5.46 0.422-3.735-0.555-9.214-0.744-10.225 0.473-0.039 0.814 0.146 1.051 0.363 0.287 0.264 0.486 0.544 0.572 0.504s0.027-0.378-0.238-0.667c-0.363-0.393-0.988-0.779-1.938-0.456 -2.299 0.782-4.131 3.814-5.262 6.221 -0.984 2.093-2.49 5.953-2.758 7.985 -0.072 0.542 0.045 1.309 0.17 2.121 0.135 0.892 0.273 1.814 0.141 2.362C155.336 98.844 154.518 99.896 153.727 100.913zM159.434 83.555c0.611-1.013 1.361-2.049 2.211-2.824 0.488 0.925 3.32 6.733 1.145 13.464C162.697 89.669 159.879 84.365 159.434 83.555zM152.27 103.816c0.254-0.782 0.998-1.741 1.721-2.67 0.816-1.048 1.658-2.131 1.885-3.057 0.148-0.622 0.004-1.583-0.137-2.512 -0.115-0.749-0.23-1.524-0.166-2.012 0.068-0.531 0.227-1.193 0.438-1.915 0.691 0.529 3.449 3.111 0.965 9.017 -0.191 0.132-0.375 0.248-0.543 0.323 -0.771 0.348-1.074 0.893-1.369 1.42 -0.326 0.582-0.662 1.186-1.666 1.633C152.721 104.345 152.379 103.972 152.27 103.816z" fill="#ca7a58" stroke-width="none" opacity="1" stroke="none"></path></g></g><g id="svga-group-faceshape-wrap" transform="matrix(1,0,0,1,0,0)"><g id="svga-group-faceshape-single"><path id="SvgjsPath3454" d="M100.002 0.867C66.381 0.814 39.186 27.899 39.134 61.374c-0.008 5.316 0.669 10.473 1.953 15.389l0.004 0c0.011 0.053 8.713 38.607 14.519 50.351 6.073 12.285 23.814 32.157 44.392 32.157 20.582 0 38.32-19.872 44.392-32.157 5.805-11.743 14.507-50.297 14.519-50.351l0.005 0c1.283-4.916 1.961-10.072 1.952-15.389C160.819 27.899 133.623 0.814 100.002 0.867z" fill="#f8cab6" stroke-width="none" opacity="1" stroke="none"></path><path id="SvgjsPath3455" d="M120.754 4.453c21.441 9.336 36.411 30.632 36.45 55.454 0.008 5.316-0.669 10.473-1.953 15.389l-0.005 0c-0.011 0.053-8.713 38.607-14.519 50.352 -5.709 11.548-21.608 31.944-40.725 31.944s-35.016-20.396-40.725-31.944c-5.806-11.744-14.507-50.298-14.519-50.352l-0.004 0c-1.284-4.916-1.962-10.072-1.953-15.389 0.038-24.822 15.008-46.118 36.45-55.454 -23.386 8.412-40.076 30.705-40.117 56.92 -0.008 5.316 0.669 10.473 1.953 15.389l0.004 0c0.011 0.053 8.713 38.607 14.519 50.351 6.073 12.285 23.814 32.157 44.392 32.157 20.579 0 38.319-19.872 44.392-32.157 5.805-11.743 14.507-50.297 14.519-50.351l0.005 0c1.283-4.916 1.961-10.072 1.952-15.389C160.83 35.158 144.14 12.865 120.754 4.453z" fill="#f0bba4" stroke-width="none" opacity="1" stroke="none"></path><path id="SvgjsPath3456" d="M100.002 0.867C66.381 0.814 39.186 27.899 39.134 61.374c-0.008 5.316 0.669 10.473 1.953 15.389l0.004 0c0.011 0.053 8.713 38.607 14.519 50.351 6.073 12.285 23.814 32.157 44.392 32.157 20.582 0 38.32-19.872 44.392-32.157 5.805-11.743 14.507-50.297 14.519-50.351l0.005 0c1.283-4.916 1.961-10.072 1.952-15.389C160.819 27.899 133.623 0.814 100.002 0.867z" fill="none" stroke="#ca7a58" stroke-width="1.5" opacity="1"></path></g></g><g id="svga-group-mouth-single-move" transform="matrix(1,0,0,1,0,0)"><g id="svga-group-mouth-single" transform="matrix(1,0,0,1,0,0)"><path id="SvgjsPath5446" d="M100.126 141.95c-2.835 0-3.5-2.934-3.5-2.934s3.898 0.763 7 0C103.626 139.017 102.621 141.95 100.126 141.95z" fill="url(#SvgjsLinearGradient5447)" opacity="1"></path><path id="SvgjsPath5450" d="M100.523 139.779c-1.987 0-3.757-0.267-3.868-0.283 -0.137-0.021-0.23-0.147-0.209-0.284 0.021-0.137 0.154-0.226 0.285-0.209 0.041 0.005 4.071 0.61 6.747 0.002 0.133-0.025 0.27 0.055 0.3 0.189s-0.054 0.268-0.188 0.299C102.643 139.708 101.554 139.779 100.523 139.779z" fill="#ca7a58" stroke-width="none" opacity="1"></path><path id="SvgjsPath5451" d="M84 130c0 0 11.487 1.189 15.325 1.199C103.499 131.208 117 130 117 130c-3.903 2.826-8.199 5.543-17.926 5.597C90.373 135.646 88.145 132.889 84 130z" fill="#ffffff" stroke-width="none" opacity="1"></path><path id="SvgjsPath5452" d="M84 130c0 0 11.487 1.189 15.325 1.199C103.499 131.208 117 130 117 130c-3.903 2.826-8.199 5.543-17.926 5.597C90.373 135.646 88.145 132.889 84 130z" fill="none" stroke="#d0407c" stroke-width="0.75" opacity="1"></path></g></g><g id="svga-group-eyes-left-move" transform="matrix(1,0,0,1,0,0)"><g id="svga-group-eyes-left" transform="matrix(0.9999999,0,0,0.9999999,0.000007472715367384808,0.000008799900044209608)"><g id="svga-group-eyesback-left"><path id="SvgjsPath4953" d="M76.925 80.872c4.607 0.618 8.048 3.822 11.044 9 0.004 0.006 0.013 0.004 0.018 0.009 0.008 0.032 0.022 0.063 0.029 0.094 0.29 1.188-0.752 2.198-2.068 2.988 -4.747 0.924-9.302 2.162-14.155 1.625 -9.719-1.074-10.042-6.145-10.551-7.458 -0.291-1.299-0.374-2.626-0.397-3.883 1.844 0.032 3.983-1.056 5.781-1.555C68.731 81.108 73.444 80.404 76.925 80.872z" fill="url(#SvgjsRadialGradient4954)" opacity="1"></path></g><g id="svga-group-eyesiriswrapper-left" transform="matrix(1,0,0,1,0,1)"><g id="svga-group-eyesiriscontrol-left" transform="matrix(1,0,0,1,0,0)"><g id="svga-group-eyesiris-left" transform="matrix(1,0,0,1,0,0)"><path id="SvgjsPath5349" d="M83.199 89.25c-1.231 4.522-5.896 7.187-10.429 5.944 -4.528-1.241-7.203-5.918-5.97-10.442 1.23-4.526 5.905-7.19 10.434-5.947C81.761 80.045 84.433 84.723 83.199 89.25z" fill="#34406b" stroke="#0b163d" stroke-width="0.5" opacity="1"></path><path id="SvgjsPath5350" d="M82.994 87.526c-0.625 5.021-4.353 7.638-8.432 7.365 -3.765-0.253-7.131-3.031-7.443-7.828 1.302-0.374 3.031 0.234 4.549 0.002 -0.005 0.055-0.023 0.104-0.025 0.16 -0.12 1.842 1.357 3.446 3.299 3.577 1.946 0.13 3.62-1.263 3.74-3.104 0.013-0.24-0.002-0.476-0.038-0.702C79.997 87.2 81.648 86.999 82.994 87.526z" fill="#48537a" stroke-width="none" opacity="1" stroke="none"></path><path id="SvgjsPath5351" d="M76.229 84.164c-1.869-0.535-3.777 0.533-4.26 2.396 -0.483 1.853 0.642 3.793 2.51 4.329 1.873 0.537 3.781-0.532 4.266-2.386C79.23 86.639 78.101 84.7 76.229 84.164z" fill="#000000" stroke-width="none" opacity="0.9"></path><path id="SvgjsPath5352" d="M76.229 84.164c-1.869-0.535-3.777 0.533-4.26 2.396 -0.483 1.853 0.642 3.793 2.51 4.329 1.873 0.537 3.781-0.532 4.266-2.386C79.23 86.639 78.101 84.7 76.229 84.164z" fill="none" stroke="#0b163d" stroke-width="0.75" opacity="1"></path><path id="SvgjsPath5353" d="M70.977 92.181c-0.177 0.619-1.142 0.356-0.965-0.266 0.171-0.6 0.633-0.967 0.926-1.495 0.313-0.564 1.177-0.06 0.863 0.505C71.56 91.36 71.114 91.696 70.977 92.181L70.977 92.181zM72.516 91.194c-0.266 0.31-0.614 1.458-0.766 1.834 -0.241 0.598 0.727 0.856 0.965 0.266 0.082-0.205 0.362-1.223 0.508-1.393C73.64 91.415 72.936 90.704 72.516 91.194L72.516 91.194zM74.598 94.151c0.522-0.602 0.47-1.292 0.459-2.041 -0.01-0.644-1.01-0.645-1 0 0.006 0.415 0.13 0.992-0.166 1.334C73.47 93.929 74.175 94.639 74.598 94.151L74.598 94.151zM75.619 91.985c0.008 0.621 0.084 1.226 0.268 1.82 0.19 0.614 1.155 0.352 0.965-0.266 -0.159-0.513-0.226-1.019-0.232-1.555C76.611 91.341 75.611 91.34 75.619 91.985L75.619 91.985z" fill="#ffffff" stroke-width="none" opacity="0.5"></path><path id="SvgjsPath5354" d="M80.946 85.543c-0.985 0.59-2.466 0.059-3.305-1.188 -0.838-1.248-0.713-2.739 0.273-3.328 0.984-0.593 2.467-0.061 3.301 1.187C82.053 83.462 81.932 84.952 80.946 85.543z" fill="#ffffff" stroke-width="none" opacity="0.8"></path></g></g></g><g id="svga-group-eyesfront-left"><path id="SvgjsPath4978" d="M55.5 88c0 13.808 8.283 24.999 18.5 24.999S92.5 101.808 92.5 88c0-13.809-8.283-25.001-18.5-25.001S55.5 74.191 55.5 88zM61.241 87.132c-0.291-1.299-0.374-2.626-0.397-3.883 1.844 0.032 3.983-1.056 5.781-1.555 2.106-0.586 6.819-1.29 10.3-0.822 4.607 0.618 8.048 3.822 11.044 9 0.004 0.006 0.013 0.004 0.018 0.009 0.008 0.032 0.022 0.063 0.029 0.094 0.29 1.188-0.752 2.198-2.068 2.988 -4.747 0.924-9.302 2.162-14.155 1.625C62.073 93.516 61.75 88.445 61.241 87.132z" fill="#f8cab6" stroke-width="none" opacity="1" stroke="none"></path><path id="SvgjsPath4979" d="M75.005 100.952c9.299 1.281 17.73-4.324 18.83-12.528 1.101-8.205-5.541-15.895-14.842-17.18 -9.301-1.28-17.729 4.326-18.829 12.53C59.064 91.977 65.704 99.664 75.005 100.952zM60.844 83.249c1.844 0.032 3.983-1.056 5.781-1.555 2.106-0.586 6.819-1.29 10.3-0.822 4.607 0.618 8.048 3.822 11.044 9 0.004 0.006 0.013 0.004 0.018 0.009 0.008 0.032 0.022 0.063 0.029 0.094 0.29 1.188-0.752 2.198-2.068 2.988 -4.747 0.924-9.302 2.162-14.155 1.625 -9.719-1.074-10.042-6.145-10.551-7.458C60.95 85.833 60.867 84.506 60.844 83.249z" fill="url(#SvgjsRadialGradient4980)" opacity="1"></path><path id="SvgjsPath4984" d="M61.241 87.132c-0.291-1.299-0.374-2.626-0.397-3.883 1.844 0.032 3.983-1.056 5.781-1.555 2.106-0.586 6.819-1.29 10.3-0.822 4.607 0.618 8.048 3.822 11.044 9 0.004 0.006 0.013 0.004 0.018 0.009 0.008 0.032 0.022 0.063 0.029 0.094 0.29 1.188-0.752 2.198-2.068 2.988 -4.747 0.924-9.302 2.162-14.155 1.625C62.073 93.516 61.75 88.445 61.241 87.132z" fill="url(#SvgjsRadialGradient4985)" opacity="1"></path><path id="SvgjsPath4988" d="M76.428 75.952c3.311 0.503 6.572 2.172 9.612 4.298 0.65 0.455 1.396 0.972 2.57 1.622 -0.834-0.189-1.614-0.667-2.343-1.106 0.76 0.798 1.475 1.76 2.063 2.694 -2.63-3.653-7.485-6.286-11.574-7.082 -3.927-0.765-10.991 0.142-16.17 3.104C65.306 76.058 72.317 75.327 76.428 75.952z" fill="#ca7a58" stroke-width="none" opacity="1" stroke="none"></path><path id="SvgjsPath4989" d="M88.054 89.86c-0.034 0.003-0.066-0.014-0.084-0.043 -2.996-5.044-6.437-8.167-11.045-8.769 -3.479-0.456-8.192 0.23-10.3 0.801 -1.867 0.505-4.106 1.641-5.996 1.518 -1.754-0.115-3.748-1.511-4.801-2.513 1.128 0.843 4.185 1.027 5.099 0.811 -0.282-0.073-1.853-1.056-2.157-1.348 0.741 0.422 3.617 0.862 4.542 0.628 -0.265-0.14-1.585-1.042-1.891-1.398 0.14 0.122 3.378 0.74 5.034 0.188 9.938-3.31 18.034-0.452 21.862 9.95 0.014 0.035 0.009 0.074-0.011 0.105 -0.021 0.031-0.054 0.051-0.091 0.055L88.054 89.86zM61.004 86.846c-0.644 2.483 1.093 7.881 10.4 8.505 6.612 0.442 15.696-2.737 14.568-2.526 -4.756 0.9-9.318 2.112-14.181 1.589C60.769 93.227 61.832 87.027 61.004 86.846z" fill="#000000" stroke-width="none" opacity="1" stroke="none"></path></g></g></g><g id="svga-group-eyes-right-move" transform="matrix(1,0,0,1,0,0)"><g id="svga-group-eyes-right" transform="matrix(0.9999999,0,0,0.9999999,0.00001252729339284997,0.000008799900044209608)"><g id="svga-group-eyesback-right"><path id="SvgjsPath4961" d="M123.075 80.872c-4.607 0.618-8.048 3.822-11.044 9 -0.004 0.006-0.013 0.004-0.018 0.009 -0.008 0.032-0.022 0.063-0.029 0.094 -0.29 1.188 0.752 2.198 2.068 2.988 4.747 0.924 9.302 2.162 14.155 1.625 9.719-1.074 10.042-6.145 10.551-7.458 0.291-1.299 0.374-2.626 0.397-3.883 -1.844 0.032-3.983-1.056-5.781-1.555C131.269 81.108 126.556 80.404 123.075 80.872z" fill="url(#SvgjsRadialGradient4962)" opacity="1"></path></g><g id="svga-group-eyesiriswrapper-right" transform="matrix(1,0,0,1,0,1)"><g id="svga-group-eyesiriscontrol-right" transform="matrix(1,0,0,1,0,0)"><g id="svga-group-eyesiris-right" transform="matrix(1,0,0,1,0,0)"><path id="SvgjsPath5355" d="M133.199 89.25c-1.231 4.522-5.896 7.187-10.429 5.944 -4.528-1.241-7.203-5.918-5.97-10.442 1.23-4.526 5.905-7.19 10.434-5.947C131.761 80.045 134.433 84.723 133.199 89.25z" fill="#34406b" stroke="#0b163d" stroke-width="0.5" opacity="1"></path><path id="SvgjsPath5356" d="M132.994 87.526c-0.625 5.021-4.353 7.638-8.432 7.365 -3.765-0.253-7.131-3.031-7.443-7.828 1.302-0.374 3.031 0.234 4.549 0.002 -0.005 0.055-0.023 0.104-0.025 0.16 -0.12 1.842 1.357 3.446 3.299 3.577 1.946 0.13 3.62-1.263 3.74-3.104 0.013-0.24-0.002-0.476-0.038-0.702C129.997 87.2 131.648 86.999 132.994 87.526z" fill="#48537a" stroke-width="none" opacity="1" stroke="none"></path><path id="SvgjsPath5357" d="M126.229 84.164c-1.869-0.535-3.777 0.533-4.26 2.396 -0.483 1.853 0.642 3.793 2.51 4.329 1.873 0.537 3.781-0.532 4.266-2.386C129.23 86.639 128.101 84.7 126.229 84.164z" fill="#000000" stroke-width="none" opacity="0.9"></path><path id="SvgjsPath5358" d="M126.229 84.164c-1.869-0.535-3.777 0.533-4.26 2.396 -0.483 1.853 0.642 3.793 2.51 4.329 1.873 0.537 3.781-0.532 4.266-2.386C129.23 86.639 128.101 84.7 126.229 84.164z" fill="none" stroke="#0b163d" stroke-width="0.75" opacity="1"></path><path id="SvgjsPath5359" d="M120.977 92.181c-0.177 0.619-1.142 0.356-0.965-0.266 0.171-0.6 0.633-0.967 0.926-1.495 0.313-0.564 1.177-0.06 0.863 0.505C121.56 91.36 121.114 91.696 120.977 92.181L120.977 92.181zM122.516 91.194c-0.266 0.31-0.614 1.458-0.766 1.834 -0.241 0.598 0.727 0.856 0.965 0.266 0.082-0.205 0.362-1.223 0.508-1.393C123.64 91.415 122.936 90.704 122.516 91.194L122.516 91.194zM124.598 94.151c0.522-0.602 0.47-1.292 0.459-2.041 -0.01-0.644-1.01-0.645-1 0 0.006 0.415 0.13 0.992-0.166 1.334C123.47 93.929 124.175 94.639 124.598 94.151L124.598 94.151zM125.619 91.985c0.008 0.621 0.084 1.226 0.268 1.82 0.19 0.614 1.155 0.352 0.965-0.266 -0.159-0.513-0.226-1.019-0.232-1.555C126.611 91.341 125.611 91.34 125.619 91.985L125.619 91.985z" fill="#ffffff" stroke-width="none" opacity="0.5"></path><path id="SvgjsPath5360" d="M130.946 85.543c-0.985 0.59-2.466 0.059-3.305-1.188 -0.839-1.248-0.714-2.739 0.272-3.328 0.984-0.593 2.467-0.061 3.301 1.187C132.054 83.462 131.932 84.952 130.946 85.543z" fill="#ffffff" stroke-width="none" opacity="0.8"></path></g></g></g><g id="svga-group-eyesfront-right"><path id="SvgjsPath4999" d="M126 62.999c-10.217 0-18.5 11.193-18.5 25.001 0 13.808 8.283 24.999 18.5 24.999S144.5 101.808 144.5 88C144.5 74.191 136.217 62.999 126 62.999zM128.208 94.589c-4.854 0.537-9.408-0.702-14.155-1.625 -1.316-0.791-2.358-1.8-2.068-2.988 0.007-0.032 0.021-0.063 0.029-0.094 0.005-0.005 0.014-0.003 0.018-0.009 2.996-5.178 6.437-8.382 11.044-9 3.48-0.468 8.193 0.236 10.3 0.822 1.798 0.499 3.938 1.587 5.781 1.555 -0.023 1.257-0.106 2.583-0.397 3.883C138.25 88.445 137.927 93.516 128.208 94.589z" fill="#f8cab6" stroke-width="none" opacity="1" stroke="none"></path><path id="SvgjsPath5000" d="M139.836 83.774c-1.101-8.205-9.528-13.811-18.829-12.53 -9.301 1.285-15.942 8.976-14.842 17.18 1.1 8.204 9.531 13.809 18.83 12.528C134.296 99.664 140.936 91.977 139.836 83.774zM138.759 87.132c-0.509 1.313-0.832 6.384-10.551 7.458 -4.854 0.537-9.408-0.702-14.155-1.625 -1.316-0.791-2.358-1.8-2.068-2.988 0.007-0.032 0.021-0.063 0.029-0.094 0.005-0.005 0.014-0.003 0.018-0.009 2.996-5.178 6.437-8.382 11.044-9 3.48-0.468 8.193 0.236 10.3 0.822 1.798 0.499 3.938 1.587 5.781 1.555C139.133 84.506 139.05 85.833 138.759 87.132z" fill="url(#SvgjsRadialGradient5001)" opacity="1"></path><path id="SvgjsPath5005" d="M138.759 87.132c0.291-1.299 0.374-2.626 0.397-3.883 -1.844 0.032-3.983-1.056-5.781-1.555 -2.106-0.586-6.819-1.29-10.3-0.822 -4.607 0.618-8.048 3.822-11.044 9 -0.004 0.006-0.013 0.004-0.018 0.009 -0.008 0.032-0.022 0.063-0.029 0.094 -0.29 1.188 0.752 2.198 2.068 2.988 4.747 0.924 9.302 2.162 14.155 1.625C137.927 93.516 138.25 88.445 138.759 87.132z" fill="url(#SvgjsRadialGradient5006)" opacity="1"></path><path id="SvgjsPath5009" d="M123.572 75.952c-3.311 0.503-6.572 2.172-9.612 4.298 -0.65 0.455-1.396 0.972-2.57 1.622 0.834-0.189 1.614-0.667 2.343-1.106 -0.76 0.798-1.475 1.76-2.063 2.694 2.63-3.653 7.485-6.286 11.574-7.082 3.927-0.765 10.991 0.142 16.17 3.104C134.694 76.058 127.683 75.327 123.572 75.952z" fill="#ca7a58" stroke-width="none" opacity="1" stroke="none"></path><path id="SvgjsPath5010" d="M111.784 89.846c-0.037-0.003-0.07-0.024-0.091-0.055 -0.02-0.031-0.024-0.07-0.011-0.105 3.828-10.402 11.925-13.26 21.862-9.95 1.656 0.552 4.895-0.067 5.034-0.188 -0.306 0.355-1.626 1.258-1.891 1.398 0.925 0.234 3.801-0.206 4.542-0.628 -0.305 0.292-1.875 1.275-2.157 1.348 0.914 0.216 3.971 0.032 5.099-0.811 -1.053 1.002-3.047 2.398-4.801 2.513 -1.89 0.124-4.129-1.012-5.996-1.518 -2.107-0.571-6.82-1.256-10.3-0.801 -4.608 0.602-8.049 3.725-11.045 8.769 -0.018 0.029-0.05 0.046-0.084 0.043L111.784 89.846zM128.208 94.413c-4.862 0.523-9.425-0.688-14.181-1.589 -1.128-0.211 7.956 2.969 14.568 2.526 9.308-0.624 11.044-6.021 10.4-8.505C138.168 87.027 139.231 93.227 128.208 94.413z" fill="#000000" stroke-width="none" opacity="1" stroke="none"></path></g></g></g><g id="svga-group-facehighlight-single"><path id="SvgjsPath3139" d="M140.204 113.007c0.035 22.275-17.995 40.365-40.273 40.396 -22.274 0.036-40.361-17.993-40.396-40.272C59.501 90.857 77.53 72.77 99.808 72.735 122.083 72.701 140.171 90.73 140.204 113.007z" fill="url(#SvgjsRadialGradient3140)" opacity="1"></path><path id="SvgjsPath3143" d="M135,55.999c0,19.329-15.671,35-35,35c-19.329,0-35-15.671-35-35s15.671-35,35-35C119.329,20.999,135,36.67,135,55.999z" fill="url(#SvgjsRadialGradient3144)" opacity="1"></path></g><g id="svga-group-eyebrows-left-move" transform="matrix(1,0,0,1,0,0)"><g id="svga-group-eyebrows-left-rotate" transform="matrix(1,0,0,1,0,0)"><g id="svga-group-eyebrows-left" transform="matrix(0.9499999,0,0,0.9499999,3.6600012546192175,3.5085313395584166)"><path id="SvgjsPath5381" d="M52.488 73.87c7.475-9.383 20.338-7.822 30.878-6.314 2.681 0.384 5.441 0.672 8.07 1.336 1.884 0.475 3.365 2.622 1.851 4.356 -0.708 0.825-2.253 0.672-3.207 0.652C77.459 73.645 63.193 66.387 52.488 73.87z" fill="#2a232b" stroke-width="none" opacity="1"></path></g></g></g><g id="svga-group-eyebrows-right-move" transform="matrix(1,0,0,1,0,0)"><g id="svga-group-eyebrows-right-rotate" transform="matrix(1,0,0,1,0,0)"><g id="svga-group-eyebrows-right" transform="matrix(0.9499999,0,0,0.9499999,6.341837596674722,3.5163831466438324)"><path id="SvgjsPath5382" d="M147.577 73.49c-2.164-1.448-4.454-2.47-7.043-2.889 -9.497-1.54-27.586 4.79-32.341 3.45 -2.912-0.822-2.323-3.739-1.035-4.458 0.775-0.433 0.99-0.422 7.909-1.612C126.824 65.961 139.988 64.355 147.577 73.49z" fill="#2a232b" stroke-width="none" opacity="1"></path></g></g></g><g id="svga-group-nose-single-move" transform="matrix(1,0,0,1,0,0)"><g id="svga-group-nose-single" transform="matrix(1,0,0,1,0,0)"><path id="SvgjsPath3493" d="M97.363 92.602c0 0 0.055 7.962-0.458 9.512 -1.129 3.405-6.123 11.297-5.49 13.486 0.985 3.403 5.817 3.652 8.259 3.771 2.338 0.115 7.091-0.055 7.857-2.267 0.312-0.9-0.361-3.197-0.361-3.197s-2.165 2.228-7.266 1.98c-1.456-0.07-3.824-1.5-3.851-3.517 -0.036-2.734 1.805-5.87 2.135-8.583C98.438 101.726 97.363 92.602 97.363 92.602z" fill="#e9ad94" stroke-width="none" opacity="1" stroke="none"></path><path id="SvgjsPath3494" d="M104.209 117.032c0.881 0 1.119 0.234 1.119 0.522 0 0.29-0.274 0.735-1.119 0.522 -0.928-0.231-2.548-0.124-2.548-0.124S103.328 117.032 104.209 117.032zM95.8 117.032c-0.881 0.001-1.119 0.236-1.119 0.525 0 0.288 0.265 0.704 1.119 0.521 0.941-0.201 2.548-0.125 2.548-0.125S96.682 117.035 95.8 117.032zM107.169 113.906c0 0 1.22 1.384 0.966 2.847 -0.246 1.421-2.709 2.047-2.709 2.047s1.71-1.085 1.917-2.403C107.439 115.781 107.169 113.906 107.169 113.906zM92.12 112.482c0 0-0.89 1.938-0.632 3.117 0.467 2.13 3.032 2.982 3.032 2.982s-1.601-1.462-2.17-2.753C91.729 114.42 92.12 112.482 92.12 112.482z" fill="#ca7a58" stroke-width="none" opacity="1" stroke="none"></path><path id="SvgjsPath3495" d="M104.166 114.937c0.854-0.637 0.939-1 0.763-1.237 -0.176-0.238-0.688-0.389-1.403 0.379 -0.788 0.846-2.502 1.47-2.502 1.47S103.312 115.574 104.166 114.937z" fill="#ffe1d5" stroke-width="none" opacity="1" stroke="none"></path></g></g><g id="svga-group-hair-front" transform="matrix(1,0,0,1,0,0)"><path id="SvgjsPath5441" d="M60.35 193.688c1.158-14.492 0.475-21.283-0.77-33.608 -2.595-25.694-3.31-42.128-4.043-68.959 -0.316-11.197-0.641-22.776 3.313-33.606 3.554-10.115 11.301-18.694 20.722-22.95 7.624-3.447 14.646-3.392 22.43-3.392 9.351 0 15.884 0.73 21.614 4.47 16.191 10.58 17.635 25.628 19.629 46.457 2.178 22.685 1.116 25.168 1.134 46.728 0.03 49.463-3.013 57.144 2.977 99.22 6.649 0.343 26.664-167.79 4.624-195.021 -12.594-15.575-87.972-7.296-98.007-0.403 -16.856 11.572 1.878 194.396 1.878 194.396C55.895 225.376 60.088 196.829 60.35 193.688z" fill="#493b35" stroke-width="none" opacity="0.1"></path><path id="SvgjsPath5442" d="M58.48 202.358c1.212-15.154 0.495-22.254-0.806-35.143 -2.714-26.865-3.462-44.05-4.228-72.104 -0.33-11.708-0.671-23.814 3.464-35.139 3.719-10.576 11.822-19.547 21.678-23.997 7.975-3.604 15.32-3.547 23.465-3.547 9.779 0 16.612 0.765 22.609 4.675 16.939 11.062 18.443 26.796 20.532 48.575 2.279 23.72 1.17 26.316 1.183 48.859 0.037 51.718-3.554 59.332 2.714 103.329 6.955 0.357 27.631 1.225 34.401 0.728 5.637-57.613-7.946-77.721-10.325-127.722 -1.139-24.668-2.271-67.687-25.324-96.161C134.665-1.573 119.08-6.259 101.801-2.154 88.552-4.505 75.76-1.338 65.263 5.871 47.63 17.97 32.909 43.054 31.021 64.217c-2.411 27.16 2.334 39.43-2.501 66.618 -5.761 32.415-14.864 57.097-10.235 104.528 5.256 0.388 35.999 1.845 35.999 1.845C54.328 235.491 58.206 205.643 58.48 202.358z" fill="#493b35" stroke-width="none" opacity="1"></path><path id="SvgjsPath5443" d="M156.514 238.203c-3.052-0.125-5.674-0.247-7.423-0.337 -6.268-43.997-2.677-51.611-2.714-103.329 -0.013-22.543 1.097-25.14-1.183-48.859 -2.089-21.778-3.593-37.513-20.532-48.575 -10.166-6.63-35.575-5.874-46.074-1.127 -9.855 4.45-17.959 13.421-21.678 23.997 -4.136 11.325-3.794 23.431-3.464 35.139 0.766 28.055 1.514 45.239 4.228 72.104 1.301 12.889 2.019 19.988 0.806 35.143 -0.274 3.284-4.152 33.133-4.197 34.85 0 0-3.401-0.161-8.125-0.391 0.354-11.398 5.847-22.797 6.771-34.195 1.944-48-11.669-94-0.972-143 2.916-12 7.778-22 18.475-28 9.207-5.261 26.281-6.583 32.057-2.817 0.096-0.611 0.196-1.222 0.289-1.869 1.514-8.9-1.219-12.378 1.395-18.231 -2.012 5.547 0.221 9.073-0.122 15.242 -0.069 1.079-0.416 2.695-0.861 4.65 6.292-2.681 20.152-1.896 26.556 3.025 33.178 25.495 17.501 112 22.364 169C152.767 213.505 154.927 225.928 156.514 238.203zM53.269 39.909C60.691 29.864 72.2 20.585 84.275 18.63c2.96-0.479 5.707-0.608 5.531-0.598C77.578 18.446 67.012 22.58 57.789 32.8 46.872 44.509 47.371 54.632 47.321 57.023 47.732 50.831 48.508 47.439 53.269 39.909zM109.749 21.904c1.317-0.368 4.279-1.342 8.201-1.098 15.563 0.723 34.484 18.312 36.685 42.554 0.576 5.964 1.216 24.332 0.4 10.625 -0.497-8.323-1.369-12.445-2.197-16.1 -4.167-18.454-23.161-40.319-41.44-36.366C110.345 21.765 109.749 21.904 109.749 21.904zM42.198 86.344c0.791 27.147 2.753 45.85 2.237 58.753 -1.471 16.183-3.123 29.451-3.123 29.451 -0.03 0.413 0.08-1.676 0.305-5.11C44.104 134.158 41.714 129.297 42.198 86.344zM156.817 88.121c0.417 7.484 2.223 39.41 2.494 46.176 0.227 5.292 0.263 40.677 0.381 42.338C159.72 177.225 157.602 148.345 156.817 88.121zM164.506 97.312c0.925 14.561 6.923 72.884 14.438 100.406 0.145 0.453-0.622-1.821-1.851-5.594C167.657 161.228 165.585 129.036 164.506 97.312zM38.992 117.395c-1.623 6.133-0.24 9.802-0.187 15.916 -0.286 14.263-5.243 30.714-7.033 38.957 -2.097 8.726-2.847 32.982-2.842 33.984 -0.033 1-0.85-26.039 3.125-42.239 10.377-40.344 3.92-29.618 6.383-44.87C38.791 118.026 38.992 117.395 38.992 117.395zM106.508 6.016c4.76-1.002 3.222-0.752 7.014-1.173 16.098-1.667 26.966 10.983 29.381 12.878 0.138 0.13-0.571-0.515-1.729-1.582C126.713 4.276 117.499 4.108 106.508 6.016zM57.182 29.987c6.694-6.878 14.555-16.267 30.61-16.92 6.169-0.293 9.09 1.436 10.062 1.682 0 0-8.626-4.578-25.444 3.183C66.992 20.292 60.918 26.445 57.182 29.987z" fill="#3a2b24" stroke-width="none" opacity="1"></path><path id="SvgjsPath5444" d="M184.627 202.31c-11.808-41.571-15.057-85.129-18.904-128.688 -3.153-28.372-15.003-61.281-41.116-72.753 -2.839-1.247-27.424-2.821-39.59 0.753 -41.812 10-53.492 58.916-50.563 100 2.212 31.021-9.32 67.609-17.325 101.74 0.902-28.354 7.081-48.278 11.391-72.527 4.835-27.188 0.09-39.458 2.501-66.618C32.909 43.054 47.63 17.97 65.263 5.871 75.76-1.338 88.552-4.505 101.801-2.154c12.718-3.021 24.514-1.269 35.107 6.351 0.023 0.004 0.048 0.011 0.072 0.015 3.741 2.716 7.431 6.261 10.862 10.499 23.054 28.474 24.186 71.492 25.324 96.161C174.967 148.733 183.188 169.466 184.627 202.31zM55.419 27.308c-5.997 7.544-2.415 2.772 3.69-3.506C76.943 7.338 88.264 6.365 98.295 8.659 81.472 4.024 66.606 13.774 55.419 27.308zM111.979 11.433c11.421-3.929 25.295-1.496 39.866 21.474 10.844 18.168 10.938 40.817 11.57 43.92 0.059 0.443-0.307-1.789-0.794-5.48 -1.308-8.44-3.563-29.778-22.548-51.36C135.036 14.173 124.136 7.854 111.979 11.433zM157.705 66.21c3.031 29.726 4.887 72.826 4.887 72.826 0.056 0.683-0.711-6.873-1.462-15.11C158.358 93.735 159.653 97.339 157.705 66.21zM154.559 136.402c0.332 21.587 0.059 17.159 2.332 48.097 1.977 16.713 2.607 19.68-0.461 1.053C153.621 167.693 154.113 155.258 154.559 136.402zM164.298 144.114c3.975 29.918 3.572 29.703 4.521 45.704 1.172 16.188 1.584 18.725-0.499 0.988C167.087 180.877 166.418 167.275 164.298 144.114zM48.856 38.604C42.754 50.786 41.06 60.74 39.84 74.385c-1.997 19.679-0.178 21.159-1.365 34.119 -0.013 0.167 0.007-0.172 0.046-0.899C38.99 91.267 34.574 64.494 48.856 38.604zM60.097 37.08c-6.143 5.974-9.404 17.112-11.477 25.781 -4.44 19.145-2.167 83.919-3.542 36.666 -0.629-17.744-1.211-32.394 7.84-52.141C54.873 43.101 56.972 39.759 60.097 37.08zM46.554 137.29c0.157 11.389 1.336 12.657 2.418 25.876 1.28 12.79-2.299 33.213-2.422 35.392 -0.194 1.541 2.623-23.021 1.202-40.579C46.261 141.57 46.374 144.686 46.554 137.29zM39.933 152.671c-2.873 11.796-1.906 13.18-5.192 60.408C34.667 214.079 34.458 171.888 39.933 152.671zM66.763 29.981c0.972-0.551 14.882-11.058 28.83-6.116 1.283 0.413 2.125 0.836 2.276 0.867 0.972 0.387-5.218-2.399-11.905-1.512C75.772 24.125 68.383 29.131 66.763 29.981zM106.568 19.154c2.092-0.977 4.102-2.125 9.005-2.732 13.841-1.694 22.483 9.902 23.455 10.708 0.943 1.03-4.335-5.62-12.846-8.638 -1.473-0.502-0.018-0.072-2.558-0.81 -0.412-0.144-2.072-0.543-3.782-0.742C114.035 16.403 111.294 17.185 106.568 19.154z" fill="#584e49" stroke-width="none" opacity="1"></path><path id="SvgjsPath5445" d="M173.267 110.867c-1.178-24.84-2.121-67.53-25.351-96.22 -14.129-17.46-30.241-20.7-46.099-16.9 -12.067-2.14-25.018 0.08-36.609 8.04 -17.327 11.89-32.358 36.84-34.284 58.42 -2.411 27.17 2.334 39.43-2.498 66.61 -6.068 34.13-14.509 55.09-10.288 104.04 0.02 0.2 0.039 0.4 0.058 0.6 0.097 0.011 0.185 0.011 0.283 0.021 10.501 0.59 22.606 1.229 35.567 1.82 0.078 0 0.156 0 0.234 0.01 30.221 1.37 65.079 2.5 95.039 2.35 0.065-0.01 0.136-0.01 0.201 0 12.37-0.08 23.902-0.37 33.927-0.96 0.047 0 0.097-0.01 0.137-0.01 0.029-0.3 0.056-0.6 0.085-0.89C189.25 181.737 175.628 160.558 173.267 110.867zM54.416 236.268c1.536-12.28 4.005-32.04 4.161-33.9 2.44-30.52-3.004-29.06-4.958-104.48 -0.33-12.77-1.069-25.69 3.383-37.88 3.695-10.51 11.659-19.44 21.626-23.94 4.336-1.96 8.955-2.93 13.65-3.39 15.722-0.35 24.649-0.5 32.33 4.51 16.568 10.82 18.312 25.76 20.487 48.5 2.284 23.77 1.167 26.22 1.187 48.85 0.021 28.521-0.205 2.311-0.933 56.49 -0.089 6.42 0.037 12.82 0.517 19.23 0.651 8.819 2.155 20.34 3.256 28.05C119.523 238.268 84.705 237.348 54.416 236.268zM94.427 32.518c1.799-0.13 3.607-0.19 5.416-0.2C98.152 32.377 96.354 32.447 94.427 32.518zM183.513 237.808c-9.936 0.359-21.563 0.51-34.159 0.5 -0.688-5.96-1.488-12.95-1.506-13.23 -0.863-8.55-1.42-17.149-1.4-25.75 0-1 4.094-80.43 1.344-106.32 -2.781-26.17-4.706-49.5-26.81-58.53 -4.655-1.91-9.715-2.36-17.064-2.26 -0.03 0-0.057 0-0.085 0 -5.331-0.16-10.474-0.18-15.472 0.55 -0.01 0-0.02 0-0.038 0 -5.456 0.8-10.726 2.47-15.839 5.8 -23.833 15.48-21.033 45.2-20.81 63.09 0.817 66.53 8.459 68.5 5.621 104.48 -0.03 0.34-1.936 18.43-3.141 30.12 -13-0.45-25.164-0.931-35.705-1.391 -0.116-1.93-0.184-3-0.184-3.08 -2.907-57.51 10.209-76.38 14.1-110.51 2.965-25.96-3.043-46.38 2.703-68.53 8.021-30.91 32.962-59.16 65.556-54.7 1.04 0.14 2.091 0.32 3.139 0.53 0.36-0.08 0.73-0.14 1.092-0.2 11.869-2.08 23.353-0.89 33.748 8.25 30.356 26.68 30.668 78.31 31.629 96.69 3.045 58.33 16.354 73.521 13.739 128.38C183.97 231.798 183.758 234.688 183.513 237.808z" fill="#1b100c" stroke-width="none" opacity="1"></path></g><g id="svga-group-glasses-single-move" transform="matrix(1,0,0,1,0,0)"><g id="svga-group-glasses-single" transform="matrix(1,0,0,1,0,0)"><path id="SvgjsPath3271" d="M100,18.13L100,18.13L100,18.13L100,18.13z" fill="#26120b" stroke-width="none" opacity="1" stroke="none"></path></g></g></g></g></g><rect id="svga-credit-rect" width="200" height="15" x="0" y="185" fill="#ecf0f1" opacity="0.5" style="display: none;"></rect><text id="svga-credit-text" font-family="Avenir Next, Roboto, Helvetica, Arial, sans-serif" font-size="10px" text-anchor="start" font-weight="400" size="10px" anchor="start" weight="400" fill="#333333" x="33.3125" y="182.609375" style="display: none;"><tspan id="SvgjsTspan3126" dy="13" x="33.3125">Created on AvatarMaker.com</tspan></text></g></svg>